HIERARCHY
ROOT RootJoint
{
    OFFSET   0.000000   0.000000   0.000000
    CHANNELS 6 Xposition Yposition Zposition Xrotation Yrotation Zrotation
    JOINT pelvis_lowerback
    {
        OFFSET   0.000000   0.093605   0.000000
        CHANNELS 3 Xrotation Yrotation Zrotation
        JOINT lowerback_torso
        {
            OFFSET   0.000000   0.100000   0.000000
            CHANNELS 3 Xrotation Yrotation Zrotation
            JOINT torso_head
            {
                OFFSET   0.000000   0.282350   0.000000
                CHANNELS 3 Xrotation Yrotation Zrotation
                End Site
                {
                    OFFSET   0.000000   0.192650   0.000000
                }
            }
            JOINT rTorso_Clavicle
            {
                OFFSET  -0.001000   0.157500   0.000000
                CHANNELS 3 Xrotation Yrotation Zrotation
                JOINT rShoulder
                {
                    OFFSET  -0.117647   0.000000   0.000000
                    CHANNELS 3 Xrotation Yrotation Zrotation
                    JOINT rElbow
                    {
                        OFFSET  -0.245000   0.000000   0.000000
                        CHANNELS 3 Xrotation Yrotation Zrotation
                        JOINT rWrist
                        {
                            OFFSET  -0.240000   0.000000   0.000000
                            CHANNELS 3 Xrotation Yrotation Zrotation
                            End Site
                            {
                                OFFSET  -0.116353  -0.002500   0.000000
                            }
                        }
                    }
                }
            }
            JOINT lTorso_Clavicle
            {
                OFFSET   0.001000   0.157500   0.000000
                CHANNELS 3 Xrotation Yrotation Zrotation
                JOINT lShoulder
                {
                    OFFSET   0.117647   0.000000   0.000000
                    CHANNELS 3 Xrotation Yrotation Zrotation
                    JOINT lElbow
                    {
                        OFFSET   0.245000   0.000000   0.000000
                        CHANNELS 3 Xrotation Yrotation Zrotation
                        JOINT lWrist
                        {
                            OFFSET   0.240000   0.000000   0.000000
                            CHANNELS 3 Xrotation Yrotation Zrotation
                            End Site
                            {
                                OFFSET   0.116353  -0.002500   0.000000
                            }
                        }
                    }
                }
            }
        }
    }
    JOINT rHip
    {
        OFFSET  -0.100000  -0.051395   0.000000
        CHANNELS 3 Xrotation Yrotation Zrotation
        JOINT rKnee
        {
            OFFSET   0.000000  -0.410000   0.000000
            CHANNELS 3 Xrotation Yrotation Zrotation
            JOINT rAnkle
            {
                OFFSET   0.000000  -0.390000   0.000000
                CHANNELS 3 Xrotation Yrotation Zrotation
                JOINT rToeJoint
                {
                    OFFSET   0.000000  -0.050000   0.130000
                    CHANNELS 3 Xrotation Yrotation Zrotation
                    End Site
                    {
                        OFFSET  -0.010000   0.002000   0.060000
                    }
                }
            }
        }
    }
    JOINT lHip
    {
        OFFSET   0.100000  -0.051395   0.000000
        CHANNELS 3 Xrotation Yrotation Zrotation
        JOINT lKnee
        {
            OFFSET   0.000000  -0.410000   0.000000
            CHANNELS 3 Xrotation Yrotation Zrotation
            JOINT lAnkle
            {
                OFFSET   0.000000  -0.390000   0.000000
                CHANNELS 3 Xrotation Yrotation Zrotation
                JOINT lToeJoint
                {
                    OFFSET   0.000000  -0.050000   0.130000
                    CHANNELS 3 Xrotation Yrotation Zrotation
                    End Site
                    {
                        OFFSET   0.010000   0.002000   0.060000
                    }
                }
            }
        }
    }
}
MOTION
Frames: 15
Frame Time:   0.008333
 -2.376719   0.925631   3.975860   0.000000   0.000000   0.000000   0.000000   0.000000   0.000000   0.000000   0.000000   0.000000   0.000000   0.000000   0.000000   0.000000   0.000000   0.000000   0.000000   0.000000   0.000000   0.000000   0.000000   0.000000   0.000000   0.000000   0.000000   0.000000   0.000000   0.000000   0.000000   0.000000   0.000000   0.000000   0.000000   0.000000   0.000000   0.000000   0.000000   0.000000   0.000000   0.000000   0.000000   0.000000   0.000000   0.000000   0.000000   0.000000   0.000000   0.000000   0.000000   0.000000   0.000000   0.000000   0.000000   0.000000   0.000000   0.000000   0.000000   0.000000   0.000000   0.000000   0.000000
 -2.376566   0.926288   3.976193  -0.888434   0.164154  -0.101622   0.872064  -0.029258   0.147626   0.245690  -0.204275   0.026928  -0.121216   0.115520   0.041857   0.081290  -0.150656   0.430462   0.821365   0.359680   1.978126   0.014650   0.674105  -0.006747   0.459325  -0.550352  -2.737022   0.132529   0.144847  -0.636434   1.163965  -0.287423  -1.885485   0.016093  -0.747572   0.010072   0.518362   0.557371   2.641375   0.758488   0.179197  -0.038935   0.770202   0.000977   0.002291  -0.948535  -0.082156  -0.032587  -0.213735  -0.000321  -0.000487   0.733123  -0.099071   0.229422   1.023078  -0.001116   0.000581  -1.043472   0.160043   0.026802   0.340984  -0.000453   0.000665
 -2.376342   0.927396   3.976618  -1.832872   0.380518  -0.213016   1.690928  -0.089094   0.318295   0.562274  -0.443010   0.078017  -0.208392   0.225637   0.094681   0.164526  -0.208145   1.596784   1.611978   0.825433   4.545959   0.034568   1.349146  -0.011816   0.944717  -0.850054  -4.725354   0.269456   0.156091  -2.021912   2.292977  -0.721841  -4.380766   0.038047  -1.499084   0.017893   1.073801   0.834760   4.504015   1.526658   0.354237  -0.183815   1.631756   0.002872   0.004679  -1.835264  -0.157766  -0.064567  -0.462199  -0.000888  -0.001073   1.549216  -0.179431   0.575451   2.163664  -0.003097   0.001860  -2.014847   0.312921   0.055490   0.623006  -0.000984   0.001235
 -2.376063   0.928524   3.977102  -2.733094   0.612108  -0.317796   2.433532  -0.167201   0.493498   0.852498  -0.693727   0.139928  -0.291372   0.328443   0.148673   0.238864  -0.199633   3.212717   2.361418   1.372010   7.501358   0.054590   1.998064  -0.015077   1.418057  -0.999041  -5.857516   0.392804   0.074029  -3.846641   3.374527  -1.277848  -7.267290   0.060192  -2.226623   0.023357   1.616087   0.921886   5.504581   2.230341   0.511637  -0.428727   2.456583   0.005093   0.006344  -2.662134  -0.228923  -0.096056  -0.694555  -0.001499  -0.001502   2.375955  -0.240823   1.003058   3.272848  -0.005343   0.003260  -2.919578   0.457070   0.085481   0.881175  -0.001537   0.001692
 -2.375745   0.929359   3.977636  -3.573618   0.840235  -0.413600   3.108473  -0.256556   0.668446   1.105774  -0.947683   0.207775  -0.375620   0.424360   0.200730   0.303542  -0.152485   5.080982   3.067306   1.985494  10.715875   0.072186   2.614978  -0.016968   1.877966  -1.053357  -6.355131   0.499272  -0.064506  -5.907858   4.405736  -1.938650 -10.409418   0.079720  -2.923082   0.027048   2.144033   0.879659   5.878981   2.861774   0.651642  -0.757065   3.222761   0.007254   0.007239  -3.434697  -0.296073  -0.126908  -0.914277  -0.002096  -0.001778   3.196239  -0.285878   1.493064   4.326692  -0.007537   0.004508  -3.764091   0.592535   0.116411   1.112708  -0.002032   0.001996
 -2.375399   0.929667   3.978217  -4.354818   1.054305  -0.500927   3.725039  -0.353127   0.841248   1.326912  -1.200385   0.279512  -0.459802   0.513824   0.249951   0.359021  -0.086173   7.069758   3.727611   2.654384  14.101751   0.086249   3.197180  -0.017863   2.322818  -1.049253  -6.426231   0.587788  -0.234246  -8.072993   5.383415  -2.690350 -13.716344   0.095393  -3.584844   0.029455   2.655704   0.751333   5.840744   3.425060   0.776084  -1.152202   3.929970   0.009147   0.007499  -4.156738  -0.359358  -0.156961  -1.121644  -0.002634  -0.001921   4.003926  -0.316679   2.030469   5.323759  -0.009512   0.005503  -4.552644   0.719562   0.147932   1.320128  -0.002435   0.002161
 -2.375061   0.929272   3.978844  -5.080277   1.247442  -0.579264   4.291129  -0.454835   1.006977   1.522281  -1.449998   0.345816  -0.542272   0.597302   0.298474   0.406583  -0.012950   9.096230   4.340542   3.369991  17.602924   0.096522   3.743944  -0.018048   2.750827  -1.010643  -6.220266   0.659306  -0.420297 -10.283429   6.278203  -3.500180 -17.047926   0.106746  -4.211858   0.030792   3.149912   0.557898   5.501875   3.926153   0.886999  -1.598677   4.582075   0.010664   0.007287  -4.831533  -0.418905  -0.186115  -1.316559  -0.003081  -0.001954   4.795627  -0.334865   2.602891   6.266450  -0.011203   0.006219  -5.288902   0.838460   0.179698   1.506545  -0.002742   0.002212
 -2.374707   0.927479   3.978786  -5.316883   1.357493  -0.659563   4.487050  -0.572941   1.199335   1.616292  -1.670026   0.373420  -0.738553   0.513419   0.245202   0.497708   0.245320  10.508801   4.939886   4.021407  21.062429   0.106710   4.402029  -0.019581   3.111312  -0.953627  -4.971008   0.830432  -0.628066 -11.757886   7.037945  -4.265048 -20.416828   0.112975  -4.858198   0.032465   3.621116   0.178093   4.204323   3.731503   0.711422  -2.025631   5.499937   0.012773   0.004598  -5.023615  -0.457225   0.020239  -1.236551  -0.002238  -0.001642   5.120494  -0.262550   3.111032   6.540152  -0.009872   0.005529  -5.748238   1.076416   0.225804   1.752851  -0.003136   0.002696
 -2.374359   0.924492   3.978465  -5.491741   1.474983  -0.735253   4.712376  -0.697200   1.389156   1.687769  -1.878064   0.404661  -0.938038   0.425817   0.184817   0.559396   0.533911  11.679875   5.454087   4.689589  24.195071   0.110462   5.029296  -0.020593   3.465249  -0.822721  -3.748081   0.968586  -0.852654 -12.958561   7.701877  -5.030378 -23.444835   0.113257  -5.468447   0.033324   4.071858  -0.252848   2.968148   3.495504   0.531452  -2.419511   6.358092   0.013833   0.002483  -5.194126  -0.496570   0.212510  -1.110217  -0.001464  -0.001449   5.329257  -0.194820   3.568082   6.662150  -0.008254   0.004669  -6.183351   1.299089   0.271276   1.974300  -0.003253   0.002973
 -2.374019   0.920419   3.978033  -5.642958   1.590930  -0.808444   4.956146  -0.809321   1.576028   1.765511  -2.068315   0.444106  -1.120069   0.343292   0.126566   0.597075   0.828235  12.672805   5.893242   5.353441  27.044784   0.109787   5.622177  -0.021077   3.807513  -0.656067  -2.712638   1.075877  -1.081602 -13.961753   8.279977  -5.783646 -26.181126   0.109769  -6.042981   0.033354   4.499766  -0.692231   1.946604   3.275486   0.365119  -2.778616   7.153280   0.014110   0.000930  -5.353040  -0.533866   0.391862  -0.991299  -0.000892  -0.001280   5.462015  -0.132432   3.978609   6.731951  -0.006782   0.003870  -6.592005   1.506239   0.315415   2.172813  -0.003185   0.003074
 -2.373558   0.919365   3.978010  -5.929872   1.375413  -0.336266   5.261032  -0.801043   1.317360   1.909050  -2.162566   0.296839  -1.280746   0.269568   0.054549   0.609341   1.146854  13.812351   6.256898   6.026007  29.765122   0.107862   6.182308  -0.020765   4.138667  -0.477881  -1.865074   1.181393  -1.274163 -15.000669   8.794614  -6.487729 -28.709189   0.104665  -6.563057   0.032588   4.901344  -1.031345   1.176774   3.206963   0.236514  -3.608549   7.899115   0.013303  -0.001924  -5.490040  -0.570487   0.556544  -0.803215  -0.000406  -0.001660   5.550763  -0.087358   3.450923   7.218625  -0.005269   0.002644  -6.815019   1.616808   0.072653   1.657145  -0.003856   0.002489
 -2.373565   0.918769   3.978224  -6.157320   1.130574  -0.134190   5.502019  -0.795267   1.325537   2.028941  -2.236324   0.223156  -1.425654   0.200153  -0.020400   0.616744   1.439339  14.762901   6.569089   6.668590  32.277173   0.103690   6.710478  -0.019768   4.454943  -0.262173  -0.993649   1.291920  -1.432099 -15.925244   9.252055  -7.159285 -31.095426   0.098119  -7.051016   0.031351   5.279995  -1.371396   0.359625   3.110732   0.099931  -4.021086   8.594399   0.011499  -0.004221  -5.621933  -0.605859   0.710756  -0.659921  -0.000276  -0.001878   5.658902  -0.025136   3.215017   7.596830  -0.004214   0.001630  -7.050320   1.770969   0.035840   1.287404  -0.003266   0.001976
 -2.373880   0.918324   3.978575  -6.339242   0.893011  -0.019196   5.711196  -0.799823   1.395777   2.126305  -2.308412   0.202901  -1.563790   0.134670  -0.080141   0.622237   1.703113  15.584081   6.839213   7.271915  34.583939   0.097825   7.202061  -0.018391   4.754311  -0.052542  -0.200491   1.395981  -1.571232 -16.731122   9.658098  -7.794580 -33.292919   0.090544  -7.505001   0.029753   5.637780  -1.697739  -0.403284   3.008309  -0.034986  -4.261420   9.244243   0.009465  -0.005764  -5.747371  -0.637592   0.856220  -0.545765  -0.000266  -0.001930   5.764279   0.037695   3.086393   7.903905  -0.003437   0.000907  -7.269275   1.929202   0.034886   1.008445  -0.002606   0.001564
 -2.374558   0.917913   3.978946  -6.380659   0.694365   0.126720   5.770983  -0.803302   1.306481   2.243935  -2.339532   0.292149  -1.687194   0.019249  -0.098403   0.666908   1.864146  15.952574   7.107991   7.834688  36.397776   0.089707   7.721760  -0.017437   5.019019   0.370986   1.349353   1.559415  -1.702371 -17.017974   9.840318  -8.469947 -35.207648   0.081840  -7.981932   0.027997   5.967574  -2.111432  -1.732523   2.893223  -0.121299  -4.448947   9.469097   0.007520  -0.005215  -5.868205  -0.605550   0.958194  -0.324466  -0.000387  -0.002045   5.797851   0.091901   2.947583   8.041280  -0.002799   0.000585  -7.399868   2.056796   0.077797   0.795508  -0.001960   0.001239
 -2.375521   0.917564   3.979283  -6.368328   0.521198   0.265155   5.824432  -0.811778   1.206846   2.329135  -2.376922   0.368670  -1.799884  -0.088099  -0.109417   0.697642   2.004476  16.009706   7.354918   8.341419  37.886777   0.079555   8.201853  -0.016259   5.266795   0.781309   2.630962   1.688455  -1.831459 -17.022731   9.994421  -9.088664 -36.812322   0.072101  -8.427825   0.026061   6.275285  -2.526581  -2.812280   2.746372  -0.197285  -4.561158   9.611271   0.005909  -0.004491  -5.985479  -0.573887   1.054192  -0.129728  -0.000567  -0.002005   5.806949   0.137110   2.837039   8.104545  -0.002272   0.000412  -7.518958   2.171711   0.129046   0.791052  -0.001565   0.000991
